#!OML:ASF F:\VICON\USERDATA\INSTALL\rory3\rory3.ASF
:FULLY-SPECIFIED
:DEGREES
2469
root -10.6644 20.0531 -2.23058 -372.457 -84.7476 371.228
lowerback 5.07546 1.91614 -2.41287
upperback -2.53042 2.28972 -1.43095
thorax -5.51193 1.18372 -0.357243
lowerneck -18.7335 -2.29438 -9.32995
upperneck -13.3853 -1.79114 6.71246
head -0.981706 -0.781195 3.52705
rclavicle -6.60959e-015 3.18055e-015
rhumerus 104.841 -17.7544 -58.7666
rradius 18.8856
rwrist -0.945799
rhand -32.4536 -5.29154
rfingers 7.12502
rthumb -5.68672 -35.1952
lclavicle -6.60959e-015 3.18055e-015
lhumerus 93.3073 24.6317 35.6539
lradius 23.4281
lwrist -13.8713
lhand -12.2719 21.5795
lfingers 7.12502
lthumb 13.795 51.1021
rfemur -10.0395 17.4599 19.5169
rtibia 38.1548
rfoot 11.6506 -14.2419
rtoes 5.21508
lfemur -6.33679 -5.45963 -20.1342
ltibia 29.8286
lfoot 12.0667 15.7581
ltoes -0.924877
2470
root -10.661 20.0557 -2.23981 -373.656 -84.5887 372.555
lowerback 5.06896 1.88417 -2.49633
upperback -2.55222 2.23769 -1.46889
thorax -5.53236 1.16011 -0.345153
lowerneck -19.0098 -2.40902 -9.48022
upperneck -13.4612 -1.88839 6.97911
head -0.952533 -0.822511 3.63033
rclavicle 2.86747e-014 -7.15625e-015
rhumerus 104.328 -18.0255 -57.5159
rradius 19.2535
rwrist -1.38982
rhand -31.9593 -5.09905
rfingers 7.12502
rthumb -5.20948 -35.015
lclavicle 2.86747e-014 -7.15625e-015
lhumerus 92.6697 24.8549 35.1545
lradius 23.7205
lwrist -13.6457
lhand -12.7622 21.9064
lfingers 7.12502
lthumb 13.3224 51.4605
rfemur -10.2887 17.2662 19.152
rtibia 38.1159
rfoot 12.2208 -13.6922
rtoes 4.7626
lfemur -6.52314 -5.46255 -20.2819
ltibia 29.8304
lfoot 12.1971 15.8096
ltoes -1.45474
2471
root -10.6569 20.0578 -2.24676 -373.719 -84.4659 372.671
lowerback 5.15631 1.98937 -2.32793
upperback -2.54559 2.39099 -1.43339
thorax -5.57162 1.23106 -0.420892
lowerneck -19.102 -2.64833 -10.0438
upperneck -13.6524 -2.09208 7.0981
head -0.977756 -0.899081 3.75206
rclavicle -9.79014e-015 -3.97569e-016
rhumerus 103.907 -18.2395 -56.4242
rradius 19.5205
rwrist -1.49898
rhand -31.4333 -4.9219
rfingers 7.12502
rthumb -4.70155 -34.8497
lclavicle -9.79014e-015 -3.97569e-016
lhumerus 93.4081 24.3441 36.4673
lradius 23.359
lwrist -14.7694
lhand -12.5787 24.6427
lfingers 7.12502
lthumb 13.4993 54.1852
rfemur -10.424 17.314 18.953
rtibia 38.0699
rfoot 12.4648 -13.26
rtoes 4.40776
lfemur -6.65718 -5.30745 -20.2863
ltibia 29.8649
lfoot 12.0972 16.016
ltoes -0.706084
2472
root -10.6507 20.0592 -2.25617 -372.455 -84.2676 371.431
lowerback 5.30086 2.05011 -2.09389
upperback -2.52871 2.48681 -1.43128
thorax -5.62703 1.27035 -0.564353
lowerneck -19.3607 -2.85918 -10.3573
upperneck -13.7351 -2.2856 7.26366
head -0.946855 -0.979346 3.84512
rclavicle -1.85615e-014 -4.77083e-015
rhumerus 103.629 -18.377 -55.8542
rradius 19.7108
rwrist -1.46051
rhand -30.6924 -4.62703
rfingers 7.12502
rthumb -3.98614 -34.5695
lclavicle -1.85615e-014 -4.77083e-015
lhumerus 94.013 23.967 37.3179
lradius 23.1402
lwrist -15.1954
lhand -12.136 26.9086
lfingers 7.12502
lthumb 13.926 56.4223
rfemur -10.4845 17.3672 18.908
rtibia 38.005
rfoot 12.6338 -12.9473
rtoes 4.33016
lfemur -6.81448 -5.19576 -20.1504
ltibia 29.9355
lfoot 12.2198 15.9497
ltoes -0.703356
2473
root -10.6447 20.0588 -2.2694 -372.356 -84.0331 371.376
lowerback 5.42304 2.02453 -2.12953
upperback -2.51279 2.44609 -1.43777
thorax -5.68109 1.25143 -0.551514
lowerneck -19.8069 -2.95948 -10.4276
upperneck -13.642 -2.36521 7.36826
head -0.849396 -1.01236 3.88122
rclavicle 5.46658e-015 4.37326e-015
rhumerus 103.9 -17.911 -56.332
rradius 19.5568
rwrist -0.782663
rhand -29.9793 -4.57653
rfingers 7.12502
rthumb -3.29749 -34.5308
lclavicle 5.46658e-015 4.37326e-015
lhumerus 94.4097 23.7836 37.9382
lradius 22.924
lwrist -15.5266
lhand -11.8686 25.7722
lfingers 7.12502
lthumb 14.1836 55.268
rfemur -10.5464 17.4564 18.7346
rtibia 37.9226
rfoot 12.8683 -12.682
rtoes 4.27409
lfemur -6.99641 -5.04996 -20.1344
ltibia 30.0455
lfoot 12.122 16.0007
ltoes 0.158045
